<svg width="23" height="23" viewBox="0 0 23 23" fill="none" xmlns="http://www.w3.org/2000/svg">
<path d="M22.579 9.6105L19.624 9.1275C19.451 8.5345 19.2145 7.9645 18.9185 7.425L20.6435 4.9665C20.783 4.768 20.759 4.4975 20.5875 4.3255L18.643 2.382C18.4695 2.209 18.1965 2.1865 17.9975 2.33L15.576 4.0705C15.0315 3.7695 14.4565 3.5305 13.86 3.357L13.3445 0.414C13.3025 0.175 13.095 0 12.852 0H10.102C9.857 0 9.648 0.1775 9.6085 0.4195L9.1305 3.3465C8.5305 3.519 7.9545 3.7555 7.412 4.0525L4.997 2.3275C4.7975 2.185 4.526 2.208 4.3525 2.3805L2.409 4.324C2.2375 4.4955 2.2135 4.7655 2.353 4.964L4.0525 7.3955C3.75 7.943 3.509 8.5225 3.3335 9.1255L0.418 9.611C0.177 9.651 0 9.86 0 10.104V12.854C0 13.0965 0.174 13.304 0.4125 13.3465L3.328 13.8635C3.5025 14.465 3.7435 15.0445 4.047 15.5935L2.3265 18C2.1845 18.1985 2.207 18.471 2.3795 18.6445L4.3235 20.59C4.495 20.7615 4.7655 20.7855 4.964 20.646L7.399 18.9405C7.9455 19.241 8.523 19.4795 9.1215 19.6525L9.6095 22.583C9.649 22.8235 9.8575 23 10.102 23H12.852C13.0945 23 13.302 22.826 13.344 22.5875L13.8665 19.6425C14.466 19.466 15.0405 19.226 15.5815 18.925L18.034 20.6455C18.233 20.786 18.503 20.7615 18.675 20.59L20.619 18.6445C20.792 18.471 20.8145 18.1975 20.671 17.9985L18.922 15.57C19.2185 15.03 19.454 14.459 19.6255 13.866L22.5845 13.3465C22.824 13.3045 22.998 13.0965 22.998 12.854V10.104C22.9985 9.859 22.821 9.65 22.579 9.6105ZM11.499 15C9.566 15 7.999 13.433 7.999 11.5C7.999 9.567 9.566 8 11.499 8C13.432 8 14.999 9.567 14.999 11.5C14.999 13.433 13.432 15 11.499 15Z" fill="black"/>
</svg>
